<?xml version="1.0" encoding="UTF-8" standalone="no"?>
<!DOCTYPE svg PUBLIC "-//W3C//DTD SVG 1.1//EN" "http://www.w3.org/Graphics/SVG/1.1/DTD/svg11.dtd">
<svg width="100%" height="100%" viewBox="0 0 2000 688" version="1.1" xmlns="http://www.w3.org/2000/svg" xmlns:xlink="http://www.w3.org/1999/xlink" xml:space="preserve" xmlns:serif="http://www.serif.com/" style="fill-rule:evenodd;clip-rule:evenodd;stroke-linejoin:round;stroke-miterlimit:2;">
    <g id="Curvers" transform="matrix(1.01098,0,0,1.01098,4.87462e-18,-7.55196)">
        <g transform="matrix(0.980392,0,0,0.980392,2.94118,14.4706)">
            <path fill="white" d="M-3,79.944C-3,44.939 18.087,13.381 50.427,-0.015C82.768,-13.411 119.993,-6.007 144.746,18.746C292.274,166.274 517.726,391.726 665.254,539.254C690.007,564.007 697.411,601.232 684.015,633.573C670.619,665.913 639.061,687 604.056,687L83.548,687C35.749,687 -3,648.251 -3,600.452L-3,79.944Z"/>
        </g>
        <g transform="matrix(0.735294,0,0,0.980392,802.206,14.4706)">
            <path fill="white" d="M-3,130.643C-3,93.39 28.784,60.317 75.905,48.536C123.026,36.756 174.912,48.912 204.714,78.714C352.044,226.044 545.712,419.712 674.524,548.524C700.749,574.749 704.968,609.837 685.421,639.158C665.873,668.479 625.916,687 582.207,687C428.843,687 234.02,687 112.397,687C48.665,687 -3,648.251 -3,600.452L-3,130.643Z"/>
        </g>
        <g transform="matrix(0.490196,0,0,0.980392,1401.47,14.4706)">
            <path fill="white" d="M-3,237.621C-3,197.482 52.196,162.611 130.326,153.389C208.456,144.167 289.015,163.015 324.916,198.916C452.518,326.518 590.999,464.999 687.747,561.747C714.576,588.576 711.709,620.438 680.17,645.953C648.631,671.469 592.917,687 532.926,687L170.095,687C124.187,687 80.16,677.882 47.698,661.651C15.237,645.42 -3,623.406 -3,600.452L-3,237.621Z"/>
        </g>
        <g transform="matrix(1,0,0,1,8.89174,51.6067)">
            <circle fill="white" cx="1879.2" cy="546.197" r="90.197"/>
        </g>
    </g>
</svg>
